<svg width="550" height="400" viewBox="0 0 550 400" fill="none" xmlns="http://www.w3.org/2000/svg">
<rect width="550" height="400" fill="#98FBCC"/>
<path d="M191 111H359L342.2 353H207.8L191 111Z" fill="#429462"/>
<path d="M191.195 202.178C191.09 201.008 192.012 200 193.187 200H356.813C357.988 200 358.91 201.008 358.805 202.178L350.227 298.178C350.134 299.209 349.27 300 348.235 300H201.765C200.73 300 199.866 299.209 199.773 298.178L191.195 202.178Z" fill="#313131"/>
<mask id="mask0_5_14" style="mask-type:alpha" maskUnits="userSpaceOnUse" x="168" y="240" width="213" height="21">
<path d="M204.65 251.99C204.55 253.89 203.86 255.48 202.58 256.76C201.3 258.04 199.41 259 196.91 259.64C194.43 260.28 191.29 260.6 187.49 260.6C184.59 260.6 181.99 260.44 179.69 260.12C177.39 259.82 175.43 259.3 173.81 258.56C172.19 257.8 170.95 256.77 170.09 255.47C169.23 254.17 168.8 252.53 168.8 250.55C168.8 248.57 169.23 246.92 170.09 245.6C170.95 244.26 172.19 243.2 173.81 242.42C175.43 241.62 177.39 241.05 179.69 240.71C181.99 240.37 184.59 240.2 187.49 240.2C191.29 240.2 194.44 240.55 196.94 241.25C199.44 241.93 201.33 242.94 202.61 244.28C203.89 245.62 204.58 247.25 204.68 249.17H196.88C196.64 248.53 196.2 247.97 195.56 247.49C194.92 246.99 193.96 246.6 192.68 246.32C191.4 246.04 189.67 245.9 187.49 245.9C184.93 245.9 182.85 246.06 181.25 246.38C179.65 246.68 178.48 247.17 177.74 247.85C177 248.53 176.63 249.43 176.63 250.55C176.63 251.57 177 252.4 177.74 253.04C178.48 253.68 179.65 254.15 181.25 254.45C182.85 254.75 184.93 254.9 187.49 254.9C189.67 254.9 191.39 254.77 192.65 254.51C193.93 254.25 194.89 253.9 195.53 253.46C196.17 253 196.61 252.51 196.85 251.99H204.65ZM226.442 260.6C222.082 260.6 218.572 260.22 215.912 259.46C213.252 258.68 211.312 257.54 210.092 256.04C208.892 254.52 208.292 252.64 208.292 250.4C208.292 248.16 208.892 246.29 210.092 244.79C211.312 243.27 213.252 242.13 215.912 241.37C218.572 240.59 222.082 240.2 226.442 240.2C230.802 240.2 234.312 240.59 236.972 241.37C239.632 242.13 241.562 243.27 242.762 244.79C243.982 246.29 244.592 248.16 244.592 250.4C244.592 252.64 243.982 254.52 242.762 256.04C241.562 257.54 239.632 258.68 236.972 259.46C234.312 260.22 230.802 260.6 226.442 260.6ZM226.442 254.9C228.502 254.9 230.282 254.78 231.782 254.54C233.282 254.28 234.442 253.83 235.262 253.19C236.082 252.53 236.492 251.6 236.492 250.4C236.492 249.2 236.082 248.28 235.262 247.64C234.442 246.98 233.282 246.53 231.782 246.29C230.282 246.03 228.502 245.9 226.442 245.9C224.382 245.9 222.572 246.03 221.012 246.29C219.472 246.53 218.262 246.98 217.382 247.64C216.522 248.28 216.092 249.2 216.092 250.4C216.092 251.6 216.522 252.53 217.382 253.19C218.262 253.83 219.472 254.28 221.012 254.54C222.572 254.78 224.382 254.9 226.442 254.9ZM278.735 240.8V246.5H255.995V249.05H274.595V254.15H255.995V260H248.495V240.8H278.735ZM312.572 240.8V246.5H289.832V249.05H308.432V254.15H289.832V260H282.332V240.8H312.572ZM323.67 251.9V254.3H346.47V260H316.17V240.8H346.41V246.5H323.67V248.9H342.27V251.9H323.67ZM357.86 251.9V254.3H380.66V260H350.36V240.8H380.6V246.5H357.86V248.9H376.46V251.9H357.86Z" fill="white"/>
</mask>
<g mask="url(#mask0_5_14)">
<path d="M191.195 202.178C191.09 201.008 192.012 200 193.187 200H356.813C357.988 200 358.91 201.008 358.805 202.178L350.227 298.178C350.134 299.209 349.27 300 348.235 300H201.765C200.73 300 199.866 299.209 199.773 298.178L191.195 202.178Z" fill="white"/>
</g>
<path d="M236.388 86H313.612L318 118H232L236.388 86Z" fill="#282828"/>
<path d="M187 95H363L373 127H177L187 95Z" fill="#313131"/>
</svg>
