<svg width="550" height="400" viewBox="0 0 550 400" fill="none" xmlns="http://www.w3.org/2000/svg">
<rect width="550" height="400" fill="#0F0F0F"/>
<rect x="80" y="149" width="34" height="34" fill="#FF6363"/>
<rect x="114" y="183" width="34" height="34" fill="#FF6363"/>
<rect x="80" y="217" width="34" height="34" fill="#FF6363"/>
<path d="M315.5 206.3C315.167 212.633 312.867 217.933 308.6 222.2C304.333 226.467 298.033 229.667 289.7 231.8C281.433 233.933 270.967 235 258.3 235C248.633 235 239.967 234.467 232.3 233.4C224.633 232.4 218.1 230.667 212.7 228.2C207.3 225.667 203.167 222.233 200.3 217.9C197.433 213.567 196 208.1 196 201.5C196 194.9 197.433 189.4 200.3 185C203.167 180.533 207.3 177 212.7 174.4C218.1 171.733 224.633 169.833 232.3 168.7C239.967 167.567 248.633 167 258.3 167C270.967 167 281.467 168.167 289.8 170.5C298.133 172.767 304.433 176.133 308.7 180.6C312.967 185.067 315.267 190.5 315.6 196.9H289.6C288.8 194.767 287.333 192.9 285.2 191.3C283.067 189.633 279.867 188.333 275.6 187.4C271.333 186.467 265.567 186 258.3 186C249.767 186 242.833 186.533 237.5 187.6C232.167 188.6 228.267 190.233 225.8 192.5C223.333 194.767 222.1 197.767 222.1 201.5C222.1 204.9 223.333 207.667 225.8 209.8C228.267 211.933 232.167 213.5 237.5 214.5C242.833 215.5 249.767 216 258.3 216C265.567 216 271.3 215.567 275.5 214.7C279.767 213.833 282.967 212.667 285.1 211.2C287.233 209.667 288.7 208.033 289.5 206.3H315.5ZM405.841 169H430.841V233H405.841V169ZM351.641 169H376.641V233H351.641V169ZM454.841 206.9V221.9H327.641V206.9H454.841ZM454.841 180.1V195.1H327.641V180.1H454.841Z" fill="white"/>
</svg>
