<svg viewBox="89.53488372093028 145 203.4883720930233 324.8" fill="none" xmlns="http://www.w3.org/2000/svg" xmlns:xlink="http://www.w3.org/1999/xlink" overflow="visible" width="203.4883720930233px" height="324.8px"><g id="Master/Character/Standing"><g id="Lower Body Standing" transform="translate(32 185) scale(1 1)"><g id="Lower Body Standing/Sneakers"><g id="Semi-frontal"><path id="Legs" fill-rule="evenodd" clip-rule="evenodd" d="M109.137 214.09L96.8721 258.883H138.825L147.669 214.09H109.137ZM234.182 260.977L231.349 214.09H197.147L202.334 263.606C203.186 271.744 210.047 277.923 218.229 277.923C227.435 277.923 234.738 270.166 234.182 260.977Z" fill="#d4a181"/><path id="Combined Shape" fill-rule="evenodd" clip-rule="evenodd" d="M138.415 258.383H97.5276L109.519 214.59H147.061L138.415 258.383ZM96.8726 259.383H138.826C139.065 259.383 139.27 259.214 139.317 258.98L148.16 214.187C148.189 214.04 148.151 213.888 148.056 213.773C147.961 213.657 147.819 213.59 147.67 213.59H109.137C108.912 213.59 108.715 213.741 108.655 213.958L96.3896 258.751C96.3486 258.902 96.3806 259.062 96.4746 259.186C96.5696 259.31 96.7166 259.383 96.8726 259.383ZM202.832 263.553L197.703 214.59H230.879L233.684 261.007C233.944 265.312 232.459 269.413 229.503 272.553C226.546 275.694 222.543 277.423 218.23 277.423C210.279 277.423 203.66 271.461 202.832 263.553ZM201.837 263.658C202.719 272.075 209.766 278.423 218.23 278.423C222.821 278.423 227.083 276.582 230.231 273.239C233.378 269.896 234.959 265.53 234.682 260.946L231.849 214.06C231.833 213.796 231.614 213.59 231.35 213.59H197.148C197.006 213.59 196.871 213.65 196.776 213.756C196.682 213.861 196.636 214.001 196.651 214.142L201.837 263.658Z" fill="black"/><path id="Shoes" fill-rule="evenodd" clip-rule="evenodd" d="M64.4995 278.325H138.826V258.883H96.8725L96.7185 259.022C93.9725 261.492 90.5885 263.142 86.9505 263.781L79.8565 265.028C72.8745 266.255 67.0845 271.131 64.6875 277.803L64.4995 278.325ZM229.488 261.198C222.609 260.283 215.639 260.283 208.759 261.198C198.534 262.557 189.694 269.004 185.275 278.324H252.973C248.553 269.004 239.714 262.557 229.488 261.198Z" fill="#4B69FD"/><path id="Combined Shape_2" fill-rule="evenodd" clip-rule="evenodd" d="M138.325 277.825H65.2114C67.5744 271.413 73.2054 266.704 79.9434 265.521L87.0364 264.274C90.7704 263.617 94.2344 261.93 97.0534 259.393L138.325 259.383V277.825ZM64.4994 278.825H138.825C139.101 278.825 139.325 278.601 139.325 278.325V258.883C139.325 258.607 139.101 258.383 138.825 258.383H96.8724C96.7484 258.383 96.6294 258.429 96.5374 258.512L96.3834 258.65C93.7044 261.061 90.4124 262.665 86.8634 263.288L79.7704 264.535C72.6284 265.791 66.6684 270.809 64.2174 277.634L64.0294 278.156C63.9744 278.309 63.9974 278.479 64.0904 278.613C64.1844 278.746 64.3374 278.825 64.4994 278.825ZM252.17 277.825H186.076C190.542 269.009 198.989 263.002 208.824 261.694C215.658 260.786 222.588 260.786 229.422 261.694C239.258 263.002 247.704 269.009 252.17 277.825ZM185.274 278.825H252.972C253.144 278.825 253.303 278.737 253.395 278.592C253.487 278.448 253.498 278.266 253.424 278.111C248.913 268.598 239.99 262.09 229.554 260.703C222.633 259.783 215.614 259.783 208.693 260.703C198.256 262.091 189.333 268.598 184.822 278.111C184.749 278.266 184.76 278.448 184.852 278.592C184.943 278.737 185.103 278.825 185.274 278.825Z" fill="black"/><path id="Combined Shape_3" fill-rule="evenodd" clip-rule="evenodd" d="M66.6405 273.849H138.826V278.325H64.4995L64.6875 277.802C65.1925 276.397 65.8555 275.078 66.6405 273.849ZM252.973 278.325C252.223 276.744 251.337 275.253 250.348 273.849H187.899C186.91 275.253 186.024 276.744 185.274 278.325H252.973Z" fill="#EFF2F7"/><path id="Combined Shape_4" fill-rule="evenodd" clip-rule="evenodd" d="M138.325 277.825H65.2114C65.6504 276.635 66.2234 275.468 66.9174 274.349H138.325V277.825ZM64.5004 278.825H138.825C139.101 278.825 139.325 278.601 139.325 278.325V273.849C139.325 273.573 139.101 273.349 138.825 273.349H66.6414C66.4704 273.349 66.3114 273.436 66.2194 273.58C65.3914 274.876 64.7174 276.24 64.2164 277.634L64.0294 278.156C63.9744 278.309 63.9974 278.48 64.0914 278.613C64.1844 278.746 64.3374 278.825 64.5004 278.825ZM252.17 277.825H186.078C186.678 276.648 187.376 275.482 188.16 274.349H250.088C250.872 275.482 251.57 276.648 252.17 277.825ZM185.275 278.825H252.973C253.145 278.825 253.303 278.737 253.395 278.592C253.486 278.448 253.497 278.266 253.424 278.111C252.693 276.566 251.794 275.035 250.757 273.561C250.663 273.429 250.51 273.349 250.348 273.349H187.899C187.737 273.349 187.584 273.429 187.491 273.561C186.453 275.035 185.556 276.566 184.823 278.111C184.75 278.266 184.761 278.448 184.852 278.592C184.944 278.737 185.103 278.825 185.275 278.825Z" fill="black"/><path id="Pants" fill-rule="evenodd" clip-rule="evenodd" d="M221.503 77.4998H143.117L91.1187 254.218H145.102L177.65 138.711L193.924 254.218H243.143L221.503 77.4998Z" fill="#409B81"/><path id="Combined Shape_5" fill-rule="evenodd" clip-rule="evenodd" d="M242.581 253.718H194.358L178.161 138.761L183.494 119.857C183.569 119.591 183.414 119.315 183.148 119.24C182.882 119.167 182.606 119.32 182.531 119.585L177.194 138.506C177.184 138.528 177.175 138.551 177.168 138.576L144.723 253.718H91.7873L143.491 77.9995H221.057L242.581 253.718ZM172.965 157.179L145.582 254.354C145.522 254.569 145.325 254.718 145.101 254.718H91.1193C90.9613 254.718 90.8133 254.644 90.7183 254.517C90.6243 254.391 90.5953 254.228 90.6393 254.077L142.637 77.3585C142.699 77.1455 142.895 76.9995 143.116 76.9995H221.502C221.756 76.9995 221.97 77.1895 221.999 77.4415L243.639 254.16C243.656 254.302 243.611 254.444 243.516 254.551C243.421 254.657 243.285 254.718 243.143 254.718H193.923C193.674 254.718 193.463 254.534 193.428 254.288L177.488 141.147L172.967 157.173C172.966 157.175 172.966 157.177 172.965 157.179Z" fill="black"/></g></g></g><g id="Head" transform="translate(193 148) scale(1 1)"><g id="Head/Very Happy"><path id="Path 2" fill-rule="evenodd" clip-rule="evenodd" d="M12.5 43.7362C12.5 43.7362 16.0343 41.1591 15.4058 30.5162C15.4058 30.5162 20.9953 33.4357 27.0934 28.4993L28.5 43.6133C28.5 43.6133 24.2721 48.9731 19.8389 48.4533C15.4058 47.9335 12.5 43.7362 12.5 43.7362Z" fill="#d4a181"/><path id="Path 2 Copy" fill-rule="evenodd" clip-rule="evenodd" d="M15.6185 29.1575C19.1685 31.0897 22.873 30.4235 26.799 27.1117C27.1106 26.8489 27.5511 27.076 27.5907 27.5201L28.9973 43.2699C29.0117 43.4301 28.9677 43.5899 28.876 43.711C25.9592 47.5642 22.9235 49.332 19.7865 48.9487C16.6923 48.5707 14.1229 46.8497 12.1037 43.8105C11.9264 43.5435 11.9825 43.1583 12.2257 42.9735C14.3851 41.3327 15.3152 36.9233 14.9069 29.7193C14.882 29.2794 15.274 28.9699 15.6185 29.1575ZM27.8541 43.348L26.5503 29L26.2853 29.199C22.7217 31.8029 19.2465 32.4147 15.9004 31.0061L15.7525 30.9417L15.7761 31.5369C15.9754 37.6673 15.094 41.732 13.0614 43.7146L13 43.7713L13.1374 43.9575C14.8463 46.2141 16.9214 47.5258 19.3801 47.9095L19.7177 47.956C22.5083 48.2909 25.2631 46.7152 28 43.1638L27.8541 43.348Z" fill="black"/><g id="Very Happy"><path id="Skin" fill-rule="evenodd" clip-rule="evenodd" d="M19.7101 31.4031C12.9641 31.4031 7.49512 25.6031 7.49512 18.4491C7.49512 11.2951 12.9641 5.49512 19.7101 5.49512C26.4561 5.49512 31.9241 11.2951 31.9241 18.4491C31.9241 25.6031 26.4561 31.4031 19.7101 31.4031Z" fill="#d4a181"/><path id="Fill 213" fill-rule="evenodd" clip-rule="evenodd" d="M19.71 5.991C13.248 5.991 7.991 11.579 7.991 18.449C7.991 25.319 13.248 30.907 19.71 30.907C26.172 30.907 31.429 25.319 31.429 18.449C31.429 11.579 26.172 5.991 19.71 5.991M19.71 31.898C12.702 31.898 7 25.865 7 18.449C7 11.033 12.702 5 19.71 5C26.718 5 32.42 11.033 32.42 18.449C32.42 25.865 26.718 31.898 19.71 31.898" fill="black"/><path id="Fill 219" fill-rule="evenodd" clip-rule="evenodd" d="M16.2881 22.6057C16.2681 22.6057 16.2481 22.6047 16.2271 22.6027L14.1851 22.3547C14.0421 22.3367 13.9131 22.2587 13.8321 22.1387C13.7511 22.0197 13.7251 21.8707 13.7621 21.7307L14.3811 19.3787C14.4521 19.1127 14.7261 18.9537 14.9921 19.0227C15.2581 19.0937 15.4181 19.3667 15.3481 19.6337L14.8751 21.4307L16.3481 21.6087C16.6221 21.6427 16.8171 21.8917 16.7841 22.1657C16.7531 22.4197 16.5381 22.6057 16.2881 22.6057" fill="black"/><path id="Fill 221" fill-rule="evenodd" clip-rule="evenodd" d="M19.7099 18.1662C19.7099 18.7692 19.4029 19.2572 19.0239 19.2572C18.6449 19.2572 18.3379 18.7692 18.3379 18.1662C18.3379 17.5632 18.6449 17.0752 19.0239 17.0752C19.4029 17.0752 19.7099 17.5632 19.7099 18.1662" fill="black"/><path id="Fill 223" fill-rule="evenodd" clip-rule="evenodd" d="M13.0498 18.1662C13.0498 18.7692 12.7428 19.2572 12.3628 19.2572C11.9848 19.2572 11.6768 18.7692 11.6768 18.1662C11.6768 17.5632 11.9848 17.0752 12.3628 17.0752C12.7428 17.0752 13.0498 17.5632 13.0498 18.1662" fill="black"/><path id="Fill 225" fill-rule="evenodd" clip-rule="evenodd" d="M20.7349 15.736C20.6189 15.736 20.5039 15.696 20.4089 15.615C19.4569 14.797 18.3569 14.808 18.3469 14.8C18.0629 14.792 17.8439 14.585 17.8389 14.31C17.8349 14.035 18.0509 13.807 18.3259 13.8C18.3929 13.802 19.8069 13.78 21.0609 14.857C21.2699 15.037 21.2939 15.352 21.1139 15.562C21.0149 15.677 20.8759 15.736 20.7349 15.736" fill="black"/><path id="Fill 227" fill-rule="evenodd" clip-rule="evenodd" d="M10.6521 15.7362C10.5111 15.7362 10.3721 15.6772 10.2731 15.5622C10.0931 15.3522 10.1171 15.0362 10.3261 14.8572C11.5801 13.7802 13.0021 13.7992 13.0611 13.8002C13.3381 13.8072 13.5561 14.0362 13.5491 14.3122C13.5431 14.5842 13.3201 14.8002 13.0491 14.8002C13.0461 14.8002 13.0421 14.7992 13.0381 14.8002C12.9861 14.8002 11.9141 14.8122 10.9781 15.6152C10.8831 15.6962 10.7681 15.7362 10.6521 15.7362" fill="black"/><path id="Fill 229" fill-rule="evenodd" clip-rule="evenodd" d="M16.3071 28.1264C15.8381 28.1264 15.3171 28.0354 14.7471 27.8524C14.4841 27.7684 14.3391 27.4864 14.4241 27.2234C14.5081 26.9614 14.7871 26.8164 15.0531 26.9004C16.0881 27.2324 16.8641 27.1984 17.3581 26.8004C17.8201 26.4274 17.9991 25.7894 18.0641 25.2624C16.3911 26.0794 14.7091 25.4984 13.9671 24.9994C13.7371 24.8454 13.6771 24.5344 13.8301 24.3054C13.9841 24.0774 14.2941 24.0154 14.5231 24.1684C14.6031 24.2214 16.4561 25.4144 18.2711 23.9484C18.4141 23.8334 18.6081 23.8054 18.7781 23.8764C18.9481 23.9474 19.0641 24.1054 19.0831 24.2884C19.0921 24.3784 19.2911 26.5224 17.9901 27.5754C17.5361 27.9424 16.9731 28.1264 16.3071 28.1264" fill="black"/></g></g></g><g id="Accesories" transform="translate(193 148) scale(1 1)"><g id="Accesories/Glasses"><path id="Glasses" fill-rule="evenodd" clip-rule="evenodd" d="M19.8652 20.4009C18.3762 20.4009 17.1652 19.1899 17.1652 17.7009C17.1652 16.2119 18.3762 14.9999 19.8652 14.9999C21.3542 14.9999 22.5652 16.2119 22.5652 17.7009C22.5652 19.1899 21.3542 20.4009 19.8652 20.4009M12.0122 20.4009C10.5232 20.4009 9.31218 19.1899 9.31218 17.7009C9.31218 16.2119 10.5232 14.9999 12.0122 14.9999C13.5022 14.9999 14.7132 16.2119 14.7132 17.7009C14.7132 19.1899 13.5022 20.4009 12.0122 20.4009M25.6602 17.2009H23.5142C23.2672 15.3979 21.7342 13.9999 19.8652 13.9999C17.9962 13.9999 16.4632 15.3979 16.2162 17.2009H15.6622C15.4162 15.3979 13.8812 13.9999 12.0122 13.9999C10.1442 13.9999 8.60918 15.3979 8.36318 17.2009H7.50018C7.22318 17.2009 7.00018 17.4239 7.00018 17.7009C7.00018 17.9769 7.22318 18.2009 7.50018 18.2009H8.36318C8.60918 20.0039 10.1442 21.4009 12.0122 21.4009C13.8812 21.4009 15.4162 20.0039 15.6622 18.2009H16.2162C16.4632 20.0039 17.9962 21.4009 19.8652 21.4009C21.7342 21.4009 23.2672 20.0039 23.5142 18.2009H25.6602C25.9362 18.2009 26.1602 17.9769 26.1602 17.7009C26.1602 17.4239 25.9362 17.2009 25.6602 17.2009" fill="black"/></g></g><g id="Hair" transform="translate(143 115) scale(1 1)"><g id="Hair/Short Messy"><g id="Short Messy"><path id="Hair" fill-rule="evenodd" clip-rule="evenodd" d="M77.1663 33.2827C69.4923 27.0117 62.7262 35.0567 62.7262 35.0567L56.4892 34.5637C56.4772 34.5637 56.4702 34.5777 56.4792 34.5867L59.4253 37.7217L54.5082 39.5817C54.4973 39.5867 54.4973 39.6027 54.5082 39.6067L58.9763 41.2247L54.5192 44.8407C54.5072 44.8487 54.5162 44.8667 54.5302 44.8637L61.7362 43.2667H74.2342C75.4422 43.2667 76.4572 44.1727 76.5942 45.3727L77.2232 50.8817C77.8702 50.7597 78.5893 50.8377 79.4503 51.8487C79.7703 52.2227 79.9963 52.6987 79.9923 53.1897C79.9833 54.4717 78.9412 55.5087 77.6572 55.5087C77.5792 55.5087 77.5062 55.4927 77.4312 55.4857L77.6882 61.2137C87.1222 61.0897 89.0713 47.8967 89.0713 47.8967C91.9583 30.4857 77.1663 33.2827 77.1663 33.2827" fill="#040226"/><path id="Fill 3" fill-rule="evenodd" clip-rule="evenodd" d="M77.9546 55.9933L78.1656 60.6943C86.6496 60.1363 88.5586 47.9493 88.5766 47.8233C89.4806 42.3733 88.7216 38.4243 86.3236 36.0743C82.9356 32.7563 77.3146 33.7643 77.2586 33.7743C77.1126 33.8013 76.9636 33.7633 76.8506 33.6703C69.6536 27.7883 63.3726 35.0663 63.1086 35.3793C63.0056 35.5023 62.8496 35.5713 62.6866 35.5553L57.7056 35.1613L59.7896 37.3803C59.9046 37.5013 59.9506 37.6723 59.9126 37.8353C59.8756 37.9973 59.7586 38.1313 59.6026 38.1903L55.9146 39.5843L59.1466 40.7543C59.3156 40.8163 59.4386 40.9643 59.4696 41.1413C59.4986 41.3193 59.4316 41.4993 59.2906 41.6133L56.4356 43.9303L61.6276 42.7793C61.6636 42.7713 61.6996 42.7673 61.7366 42.7673H74.2346C75.6976 42.7673 76.9256 43.8633 77.0916 45.3163L77.6646 50.3383C78.2626 50.3403 79.0176 50.5693 79.8316 51.5243C80.2626 52.0303 80.4966 52.6233 80.4926 53.1943C80.4826 54.6453 79.3696 55.8443 77.9546 55.9933V55.9933ZM77.6886 61.7133C77.4216 61.7133 77.2016 61.5033 77.1886 61.2363L76.9316 55.5083C76.9256 55.3633 76.9816 55.2233 77.0866 55.1233C77.1916 55.0243 77.3356 54.9743 77.4796 54.9883L77.6576 55.0093C78.6626 55.0093 79.4856 54.1913 79.4926 53.1863C79.4956 52.8553 79.3456 52.4953 79.0706 52.1733C78.3046 51.2743 77.7636 51.2883 77.3166 51.3723C77.1806 51.3993 77.0386 51.3673 76.9266 51.2843C76.8146 51.2013 76.7426 51.0763 76.7266 50.9383L76.0986 45.4293C75.9896 44.4823 75.1886 43.7673 74.2346 43.7673H61.7906L54.6386 45.3523C54.4026 45.4033 54.1616 45.2803 54.0626 45.0683C53.9636 44.8573 54.0276 44.5903 54.2106 44.4473L57.9746 41.3933L54.3386 40.0773C54.1436 40.0063 54.0036 39.8113 53.9996 39.6043C53.9966 39.3923 54.1346 39.1883 54.3326 39.1143L58.5486 37.5193L56.1146 34.9293C55.9756 34.7813 55.9376 34.5493 56.0216 34.3653C56.1056 34.1803 56.3066 34.0483 56.5096 34.0643L62.5206 34.5393C63.6606 33.3233 70.1126 27.0643 77.3056 32.7533C78.4726 32.5793 83.6226 32.0363 87.0176 35.3553C89.6676 37.9453 90.5236 42.1923 89.5646 47.9783C89.5456 48.1053 87.4416 61.5853 77.6946 61.7133H77.6886Z" fill="black"/></g></g></g><g id="Upper Body" transform="translate(58 77) scale(1 1)"><g id="Upper Body/Computer"><g id="Computer"><path id="Laptop" fill-rule="evenodd" clip-rule="evenodd" d="M128.218 164.899C130.514 162.716 136.864 164.172 139.484 164.899H150.915V160.342H141.584L129.955 123.72H74.5L87.574 164.899H128.218Z" fill="#EFF2F7"/><path id="Blouse" fill-rule="evenodd" clip-rule="evenodd" d="M150.916 164.899V160.342H141.584L131.667 129.109C133.61 128.006 142.116 122.915 144.918 116.839C145.58 115.405 146 114.152 146.266 113.05H148.8L148.089 109.376C148.046 109.156 148.069 108.944 148.133 108.748C149.381 109.529 150.866 110.073 151.756 109.05C152.019 108.749 152.301 108.353 152.547 107.88H164.001C164.748 107.88 165.33 108.527 165.251 109.269L164.852 113.05H169.549C188.906 113.05 207.019 122.593 217.966 138.557L226.586 151.13C226.989 151.717 226.568 152.516 225.856 152.516H194.95C194.614 152.516 194.308 152.327 194.158 152.027L192.228 148.167L194.127 162.36L196.158 174.255C196.108 174.287 196.058 174.319 196.009 174.352C195.926 174.406 195.843 174.461 195.753 174.512C185.766 180.15 140.638 165.241 140.638 165.241C140.638 165.241 140.2 165.097 139.484 164.899H150.916ZM131.667 129.109L129.956 123.72L131.667 129.109C131.667 129.109 131.667 129.109 131.667 129.109ZM127.417 167.905C127.327 167.447 127.323 166.937 127.43 166.368C127.545 165.754 127.824 165.274 128.219 164.898H122.014C123.766 167.072 127.417 167.905 127.417 167.905ZM149.678 185.133C145.571 182.959 135.846 179.757 135.846 179.757C130.884 178.39 126.951 177.013 123.834 175.68L122.014 186.341H152.157C150.948 185.779 150.095 185.354 149.678 185.133Z" fill="#409B81"/><path id="Skin" fill-rule="evenodd" clip-rule="evenodd" d="M131.667 129.109C133.61 128.006 142.115 122.915 144.918 116.839C148.09 109.962 145.938 107.011 145.938 107.011C145.938 107.011 150.003 111.064 151.756 109.05C153.509 107.037 156.207 100.87 142.207 94.8015C128.208 88.7335 118.508 105.723 115.508 111.823C114.584 113.701 112.407 118.283 109.836 123.72H129.956L131.667 129.109ZM222.946 152.517H195.724C195.724 152.517 205.739 168.875 195.752 174.512C185.766 180.15 140.637 165.241 140.637 165.241C140.637 165.241 128.396 161.214 127.429 166.369C127.322 166.938 127.326 167.448 127.416 167.906C127.416 167.906 123.765 167.073 122.013 164.899H87.5746L85.6246 158.756C83.5286 165.741 81.9546 176.568 90.6086 180.3C99.3336 184.063 106.619 180.266 112.501 173.346C116.042 175.367 121.332 177.572 129.261 179.758C129.261 179.758 138.986 182.96 143.093 185.134C147.201 187.308 192.946 209.013 216.02 191.98C239.093 174.946 222.946 152.517 222.946 152.517V152.517Z" fill="#d4a181"/><path id="Fill 11" fill-rule="evenodd" clip-rule="evenodd" d="M147.708 108.468C147.578 108.782 147.532 109.128 147.598 109.47L148.193 112.551H146.382C146.316 112.869 146.235 113.202 146.139 113.551H148.8C148.949 113.551 149.09 113.484 149.186 113.369C149.28 113.254 149.319 113.102 149.291 112.956L148.58 109.28C148.562 109.191 148.573 109.101 148.587 109.014C148.283 108.847 147.986 108.661 147.708 108.468" fill="black"/><path id="Fill 13" fill-rule="evenodd" clip-rule="evenodd" d="M109.526 123.72H109.836C109.887 123.613 109.936 123.509 109.986 123.402C109.834 123.51 109.677 123.611 109.526 123.72" fill="black"/><path id="Fill 15" fill-rule="evenodd" clip-rule="evenodd" d="M115.956 112.044C119.378 105.086 128.768 89.5205 142.008 95.2605C148.207 97.9475 151.859 101.023 152.567 104.152C153.087 106.447 151.909 108.112 151.378 108.722C151.159 108.975 150.893 109.098 150.542 109.11C149.126 109.183 146.997 107.358 146.292 106.659V106.658L143.078 103.44C143.028 103.39 142.969 103.354 142.906 103.33C139.94 99.6195 134.467 97.9645 134.139 97.8675C133.874 97.7905 133.596 97.9415 133.518 98.2065C133.44 98.4715 133.592 98.7495 133.857 98.8275C133.964 98.8585 144.602 102.075 143.731 109.274C142.904 116.113 141.32 117.656 140.45 117.967C139.725 118.224 138.848 117.871 137.844 116.917C138.541 114.755 138.557 111.765 137.876 107.945C136.858 102.234 129.197 101.976 128.871 101.967C128.585 101.959 128.366 102.179 128.359 102.455C128.352 102.731 128.57 102.96 128.846 102.967C128.918 102.969 136.016 103.204 136.894 108.137C138.173 115.307 136.93 119.288 133.245 119.963C132.599 120.019 130.814 119.971 130.332 119.079C130.331 119.076 130.328 119.075 130.327 119.072C131.642 116.894 132.426 113.836 132.591 111.65C132.976 106.574 125.352 105.402 125.027 105.355C124.758 105.312 124.5 105.503 124.46 105.777C124.42 106.05 124.609 106.304 124.882 106.344C124.953 106.354 131.908 107.426 131.594 111.575C131.354 114.747 129.704 119.799 127.347 120.636C126.438 120.955 125.463 120.576 124.447 119.502C121.543 116.435 126.087 111.26 126.133 111.209C126.317 111.002 126.299 110.686 126.093 110.502C125.887 110.319 125.571 110.337 125.387 110.543C125.314 110.624 124.691 111.339 124.039 112.384C123.657 112.1 123.76 110.991 123.953 110.323C124.029 110.058 123.877 109.781 123.612 109.704C123.346 109.626 123.07 109.778 122.993 110.044C122.922 110.286 122.338 112.428 123.479 113.217C123.5 113.231 123.524 113.227 123.546 113.238C122.473 115.265 121.691 118.045 123.721 120.19C124.855 121.388 125.886 121.747 126.712 121.747C127.078 121.747 127.404 121.676 127.681 121.578C128.45 121.305 129.134 120.717 129.733 119.944C130.539 120.84 132.046 120.974 132.851 120.974C133.141 120.974 133.339 120.957 133.379 120.953C135.281 120.606 136.641 119.583 137.458 117.898C138.334 118.651 139.174 119.052 139.964 119.052C140.244 119.052 140.518 119.004 140.787 118.908C142.719 118.218 144.044 115.017 144.724 109.394C144.863 108.25 144.75 107.203 144.465 106.245L145.55 107.331C145.71 107.578 147.352 110.368 144.463 116.629C141.783 122.44 133.592 127.425 131.511 128.621L131.821 129.596C133.609 128.596 142.433 123.418 145.372 117.048C147.242 112.993 147.315 110.232 147.021 108.59C148.026 109.341 149.4 110.151 150.577 110.11C151.206 110.088 151.729 109.842 152.133 109.378C152.764 108.654 154.164 106.673 153.543 103.932C152.749 100.429 149.002 97.2025 142.405 94.3425C128.374 88.2625 118.607 104.388 115.059 111.603C114.127 113.497 111.902 118.179 109.283 123.72H110.389C112.917 118.373 115.051 113.885 115.956 112.044M215.722 191.577C191.984 209.099 143.803 184.943 143.327 184.692C139.229 182.523 129.816 179.414 129.394 179.276C112.484 174.615 107.814 169.873 106.537 167.461C106.025 166.496 105.971 165.784 105.998 165.399H110.582C110.58 165.481 110.565 165.553 110.578 165.646C110.756 166.938 112.537 168.422 115.873 170.059C122.358 173.242 130.425 175.683 130.506 175.707C130.554 175.721 130.602 175.728 130.65 175.728C130.865 175.728 131.063 175.588 131.129 175.372C131.208 175.107 131.059 174.829 130.794 174.749C130.714 174.725 122.726 172.308 116.313 169.162C112.305 167.195 111.666 165.985 111.577 165.557C111.562 165.487 111.57 165.444 111.575 165.399H121.78C123.381 167.221 126.134 168.082 127.02 168.321C128.093 172.034 134.227 172.335 134.472 172.343L139.062 172.746C139.078 172.748 139.092 172.748 139.107 172.748C139.363 172.748 139.582 172.552 139.604 172.292C139.629 172.017 139.425 171.774 139.15 171.75L134.536 171.346C134.477 171.343 128.548 171.063 127.906 167.809C127.825 167.397 127.829 166.943 127.92 166.461C128.047 165.781 128.409 165.273 129.026 164.909C132.203 163.029 140.398 165.69 140.479 165.716C142.331 166.328 185.935 180.628 195.998 174.948C198.232 173.687 199.686 171.811 200.319 169.372C201.896 163.289 197.959 155.473 196.591 153.017H222.681C224.203 155.305 236.972 175.89 215.722 191.577M223.351 152.225C223.257 152.094 223.106 152.017 222.945 152.017H195.724C195.543 152.017 195.376 152.114 195.288 152.272C195.199 152.43 195.203 152.623 195.297 152.778C195.355 152.873 201.101 162.377 199.35 169.123C198.788 171.288 197.495 172.955 195.506 174.077C185.824 179.542 141.242 164.915 140.793 164.766C140.438 164.649 132.084 161.939 128.518 164.047C127.65 164.56 127.118 165.31 126.937 166.276C126.876 166.602 126.847 166.92 126.849 167.228C125.75 166.884 123.586 166.055 122.402 164.586C122.307 164.467 122.164 164.399 122.013 164.399H105.583C105.375 164.399 105.188 164.528 105.115 164.723C105.067 164.85 104.676 166.014 105.6 167.828C106.397 169.394 108.134 171.347 111.713 173.475C109.471 176.036 107.036 178.134 104.396 179.501C100.062 181.746 95.4901 181.86 90.8071 179.841C88.1921 178.713 86.3651 176.811 85.3761 174.185C83.7171 169.777 84.6501 164.061 85.9021 159.633L85.3521 157.899C83.8641 162.587 82.4771 169.321 84.4401 174.536C85.5271 177.426 87.5371 179.52 90.4111 180.759C92.7621 181.773 95.0861 182.279 97.3731 182.279C99.9231 182.279 102.425 181.649 104.857 180.389C107.539 179 110.127 176.856 112.617 173.993C116.22 175.993 121.472 178.129 129.104 180.233C129.201 180.265 138.836 183.446 142.859 185.576C143.212 185.762 169.464 198.92 193.003 198.92C201.601 198.92 209.836 197.165 216.316 192.382C239.519 175.253 223.515 152.453 223.351 152.225" fill="black"/><path id="Fill 18" fill-rule="evenodd" clip-rule="evenodd" d="M226.998 150.847L218.378 138.274C207.334 122.167 189.08 112.55 169.549 112.55H165.407L165.748 109.321C165.8 108.826 165.639 108.331 165.307 107.961C164.974 107.592 164.498 107.38 164 107.38H152.776C152.624 107.751 152.446 108.088 152.258 108.38H164C164.218 108.38 164.417 108.469 164.563 108.63C164.708 108.792 164.776 109 164.753 109.216L164.354 112.997C164.339 113.139 164.384 113.279 164.479 113.385C164.574 113.49 164.709 113.55 164.851 113.55H169.549C188.75 113.55 206.695 123.004 217.553 138.84L226.174 151.412C226.293 151.586 226.23 151.748 226.197 151.81C226.165 151.872 226.065 152.016 225.855 152.016H194.95C194.803 152.016 194.67 151.934 194.604 151.803L192.675 147.943C192.565 147.725 192.315 147.618 192.082 147.689C191.848 147.761 191.7 147.991 191.732 148.233L193.633 162.443L195.7 174.539C195.717 174.53 195.735 174.521 195.752 174.512C196.059 174.339 196.345 174.155 196.615 173.963L194.622 162.293L193.121 151.071L193.71 152.25C193.946 152.722 194.422 153.016 194.95 153.016H196.015C195.835 152.698 195.724 152.516 195.724 152.516H222.947C222.947 152.516 223.072 152.691 223.282 153.016H225.855C226.371 153.016 226.841 152.732 227.081 152.276C227.321 151.82 227.29 151.272 226.998 150.847V150.847ZM116.022 185.841L117.723 175.875C117.4 175.74 117.084 175.605 116.778 175.471L114.936 186.257C114.912 186.402 114.952 186.551 115.047 186.663C115.142 186.776 115.282 186.841 115.429 186.841H146.661C145.816 186.458 145.096 186.121 144.514 185.841H116.022ZM162.168 109.053C161.892 109.053 161.668 109.276 161.668 109.553V112.57C161.668 112.847 161.892 113.07 162.168 113.07C162.444 113.07 162.668 112.847 162.668 112.57V109.553C162.668 109.276 162.444 109.053 162.168 109.053V109.053ZM159.917 109.053C159.641 109.053 159.417 109.276 159.417 109.553V112.57C159.417 112.847 159.641 113.07 159.917 113.07C160.194 113.07 160.417 112.847 160.417 112.57V109.553C160.417 109.276 160.194 109.053 159.917 109.053V109.053ZM157.667 109.053C157.391 109.053 157.167 109.276 157.167 109.553V112.57C157.167 112.847 157.391 113.07 157.667 113.07C157.943 113.07 158.167 112.847 158.167 112.57V109.553C158.167 109.276 157.943 109.053 157.667 109.053V109.053ZM153.166 109.053C152.89 109.053 152.666 109.276 152.666 109.553V112.57C152.666 112.847 152.89 113.07 153.166 113.07C153.442 113.07 153.666 112.847 153.666 112.57V109.553C153.666 109.276 153.442 109.053 153.166 109.053V109.053ZM155.416 109.053C155.14 109.053 154.916 109.276 154.916 109.553V112.57C154.916 112.847 155.14 113.07 155.416 113.07C155.693 113.07 155.916 112.847 155.916 112.57V109.553C155.916 109.276 155.693 109.053 155.416 109.053V109.053ZM150.915 109.053C150.64 109.053 150.415 109.276 150.415 109.553V112.57C150.415 112.847 150.64 113.07 150.915 113.07C151.192 113.07 151.415 112.847 151.415 112.57V109.553C151.415 109.276 151.192 109.053 150.915 109.053V109.053Z" fill="black"/><path id="Fill 20" fill-rule="evenodd" clip-rule="evenodd" d="M150.415 160.842V164.399H143.235L142.144 160.842H150.415ZM105.583 164.899H122.013C122.155 165.075 122.312 165.239 122.477 165.399H127.81C128.078 164.974 128.457 164.645 128.923 164.399H87.9403L75.1833 124.22H129.59L137.604 149.461V149.462L142.189 164.399H137.472C139.297 164.801 140.637 165.241 140.637 165.241C140.637 165.241 140.806 165.297 141.12 165.399H150.915C151.191 165.399 151.415 165.175 151.415 164.899V160.342C151.415 160.066 151.191 159.842 150.915 159.842H141.949L130.432 123.569C130.366 123.361 130.173 123.22 129.955 123.22H74.5003C74.3403 123.22 74.1903 123.296 74.0963 123.425C74.0023 123.553 73.9753 123.719 74.0233 123.871L87.0983 165.05C87.1643 165.258 87.3563 165.399 87.5743 165.399H105.499C105.518 165.076 105.583 164.899 105.583 164.899V164.899Z" fill="black"/></g></g></g><g id="Facial Hair" transform="translate(193 148) scale(39 49)"><g id="Facial Hair/No Facial Hair" stroke="none" stroke-width="1" fill="none" fill-rule="evenodd" fill-opacity="0"/></g></g></svg>